<?xml version="1.0" encoding="UTF-8"?>
<svg id="Capa_1" xmlns="http://www.w3.org/2000/svg" version="1.1" viewBox="0 0 69.5 86.9">
  <!-- Generator: Adobe Illustrator 29.0.1, SVG Export Plug-In . SVG Version: 2.1.0 Build 192)  -->
  <defs>
    <style>
      .st0 {
        fill: #fcf8b8;
      }
    </style>
  </defs>
  <rect class="st0" width="69.5" height="86.9"/>
  <path d="M21.1,12.4c0-2.3-1.9-4.2-4.2-4.2s-4.2,1.9-4.2,4.2v4.9c-5,1.8-8.4,6.5-8.4,11.9v33.6c0,7,5.6,12.6,12.6,12.6h35.7c7,0,12.6-5.6,12.6-12.6V29.2c0-5.3-3.4-10.1-8.4-11.9v-4.9c0-2.3-1.9-4.2-4.2-4.2s-4.2,1.9-4.2,4.2v4.2h-9.5v-4.2c0-2.3-1.9-4.2-4.2-4.2s-4.2,1.9-4.2,4.2v4.2h-9.5v-4.2ZM52.6,25c2.3,0,4.2,1.9,4.2,4.2v33.6c0,2.3-1.9,4.2-4.2,4.2H16.9c-2.3,0-4.2-1.9-4.2-4.2V29.2c0-2.3,1.9-4.2,4.2-4.2h35.7Z"/>
  <path d="M26.9,54.6c2.6,2.6,6.8,2.6,9.5,0l10.9-10.9c1.6-1.6,1.6-4.3,0-5.9s-4.3-1.6-5.9,0l-9.6,9.6-3.3-3.3c-1.6-1.6-4.3-1.6-5.9,0s-1.6,4.3,0,5.9l4.6,4.6Z"/>
</svg>